<?xml version="1.0" encoding="UTF-8" standalone="no"?>
<!DOCTYPE svg PUBLIC "-//W3C//DTD SVG 1.1//EN"
 "http://www.w3.org/Graphics/SVG/1.1/DTD/svg11.dtd">
<!-- Generated by graphviz version 2.43.0 (0)
 -->
<!-- Title: G Pages: 1 -->
<svg width="725pt" height="680pt"
 viewBox="0.00 0.00 725.23 680.42" xmlns="http://www.w3.org/2000/svg" xmlns:xlink="http://www.w3.org/1999/xlink">
<g id="graph0" class="graph" transform="scale(1 1) rotate(0) translate(4 676.42)">
<title>G</title>
<polygon fill="white" stroke="transparent" points="-4,4 -4,-676.42 721.23,-676.42 721.23,4 -4,4"/>
<!-- 0 -->
<g id="node1" class="node">
<title>0</title>
<ellipse fill="none" stroke="black" cx="82" cy="-648.37" rx="27" ry="24.08"/>
<text text-anchor="middle" x="82" y="-642.17" font-family="Times,serif" font-size="24.00">0</text>
</g>
<!-- 1 -->
<g id="node2" class="node">
<title>1</title>
<ellipse fill="none" stroke="black" cx="82" cy="-492.29" rx="27" ry="24.08"/>
<text text-anchor="middle" x="82" y="-486.09" font-family="Times,serif" font-size="24.00">1</text>
</g>
<!-- 0&#45;&gt;1 -->
<g id="edge1" class="edge">
<title>0&#45;&gt;1</title>
<path fill="none" stroke="black" d="M82,-624.31C82,-598.44 82,-556.25 82,-526.75"/>
<polygon fill="black" stroke="black" points="85.5,-526.52 82,-516.52 78.5,-526.52 85.5,-526.52"/>
</g>
<!-- 2 -->
<g id="node3" class="node">
<title>2</title>
<ellipse fill="none" stroke="black" cx="27" cy="-336.21" rx="27" ry="24.08"/>
<text text-anchor="middle" x="27" y="-330.01" font-family="Times,serif" font-size="24.00">2</text>
</g>
<!-- 0&#45;&gt;2 -->
<g id="edge2" class="edge">
<title>0&#45;&gt;2</title>
<path fill="none" stroke="black" d="M74.63,-624.91C66.41,-599.02 53.32,-555.05 46,-516.33 36.45,-465.85 31.34,-406.39 28.89,-370.27"/>
<polygon fill="black" stroke="black" points="32.39,-370.04 28.25,-360.29 25.4,-370.49 32.39,-370.04"/>
</g>
<!-- 3 -->
<g id="node4" class="node">
<title>3</title>
<ellipse fill="none" stroke="black" cx="137" cy="-336.21" rx="27" ry="24.08"/>
<text text-anchor="middle" x="137" y="-330.01" font-family="Times,serif" font-size="24.00">3</text>
</g>
<!-- 0&#45;&gt;3 -->
<g id="edge3" class="edge">
<title>0&#45;&gt;3</title>
<path fill="none" stroke="black" d="M89.37,-624.91C97.59,-599.02 110.68,-555.05 118,-516.33 127.55,-465.85 132.66,-406.39 135.11,-370.27"/>
<polygon fill="black" stroke="black" points="138.6,-370.49 135.75,-360.29 131.61,-370.04 138.6,-370.49"/>
</g>
<!-- 1&#45;&gt;2 -->
<g id="edge4" class="edge">
<title>1&#45;&gt;2</title>
<path fill="none" stroke="black" d="M74.12,-469.22C64.73,-442.9 48.96,-398.73 38.28,-368.8"/>
<polygon fill="black" stroke="black" points="41.52,-367.48 34.87,-359.24 34.93,-369.84 41.52,-367.48"/>
</g>
<!-- 1&#45;&gt;3 -->
<g id="edge5" class="edge">
<title>1&#45;&gt;3</title>
<path fill="none" stroke="black" d="M89.88,-469.22C99.27,-442.9 115.04,-398.73 125.72,-368.8"/>
<polygon fill="black" stroke="black" points="129.07,-369.84 129.13,-359.24 122.48,-367.48 129.07,-369.84"/>
</g>
<!-- 4 -->
<g id="node5" class="node">
<title>4</title>
<ellipse fill="none" stroke="black" cx="109" cy="-180.12" rx="27" ry="24.08"/>
<text text-anchor="middle" x="109" y="-173.92" font-family="Times,serif" font-size="24.00">4</text>
</g>
<!-- 1&#45;&gt;4 -->
<g id="edge6" class="edge">
<title>1&#45;&gt;4</title>
<path fill="none" stroke="black" d="M84.01,-468.23C88.73,-413.95 100.57,-277.93 106.09,-214.57"/>
<polygon fill="black" stroke="black" points="109.6,-214.6 106.98,-204.34 102.63,-213.99 109.6,-214.6"/>
</g>
<!-- 3&#45;&gt;4 -->
<g id="edge7" class="edge">
<title>3&#45;&gt;4</title>
<path fill="none" stroke="black" d="M132.81,-312.14C128.07,-286.08 120.33,-243.46 114.96,-213.95"/>
<polygon fill="black" stroke="black" points="118.41,-213.31 113.17,-204.1 111.52,-214.56 118.41,-213.31"/>
</g>
<!-- 5 -->
<g id="node6" class="node">
<title>5</title>
<ellipse fill="none" stroke="black" cx="247" cy="-648.37" rx="27" ry="24.08"/>
<text text-anchor="middle" x="247" y="-642.17" font-family="Times,serif" font-size="24.00">5</text>
</g>
<!-- 6 -->
<g id="node7" class="node">
<title>6</title>
<ellipse fill="none" stroke="black" cx="247" cy="-492.29" rx="27" ry="24.08"/>
<text text-anchor="middle" x="247" y="-486.09" font-family="Times,serif" font-size="24.00">6</text>
</g>
<!-- 5&#45;&gt;6 -->
<g id="edge8" class="edge">
<title>5&#45;&gt;6</title>
<path fill="none" stroke="black" d="M247,-624.31C247,-598.44 247,-556.25 247,-526.75"/>
<polygon fill="black" stroke="black" points="250.5,-526.52 247,-516.52 243.5,-526.52 250.5,-526.52"/>
</g>
<!-- 7 -->
<g id="node8" class="node">
<title>7</title>
<ellipse fill="none" stroke="black" cx="210" cy="-336.21" rx="27" ry="24.08"/>
<text text-anchor="middle" x="210" y="-330.01" font-family="Times,serif" font-size="24.00">7</text>
</g>
<!-- 5&#45;&gt;7 -->
<g id="edge9" class="edge">
<title>5&#45;&gt;7</title>
<path fill="none" stroke="black" d="M238.92,-625.03C230.06,-599.24 216.37,-555.37 211,-516.33 204.06,-465.94 205.58,-406.81 207.58,-370.69"/>
<polygon fill="black" stroke="black" points="211.1,-370.44 208.21,-360.25 204.12,-370.02 211.1,-370.44"/>
</g>
<!-- 8 -->
<g id="node9" class="node">
<title>8</title>
<ellipse fill="none" stroke="black" cx="300" cy="-336.21" rx="27" ry="24.08"/>
<text text-anchor="middle" x="300" y="-330.01" font-family="Times,serif" font-size="24.00">8</text>
</g>
<!-- 5&#45;&gt;8 -->
<g id="edge10" class="edge">
<title>5&#45;&gt;8</title>
<path fill="none" stroke="black" d="M254.45,-624.92C262.74,-599.04 275.89,-555.09 283,-516.33 292.22,-466.07 296.6,-406.91 298.56,-370.74"/>
<polygon fill="black" stroke="black" points="302.08,-370.45 299.09,-360.29 295.08,-370.1 302.08,-370.45"/>
</g>
<!-- 6&#45;&gt;7 -->
<g id="edge11" class="edge">
<title>6&#45;&gt;7</title>
<path fill="none" stroke="black" d="M241.54,-468.56C235.26,-442.42 224.92,-399.32 217.79,-369.67"/>
<polygon fill="black" stroke="black" points="221.16,-368.69 215.42,-359.79 214.35,-370.33 221.16,-368.69"/>
</g>
<!-- 6&#45;&gt;8 -->
<g id="edge12" class="edge">
<title>6&#45;&gt;8</title>
<path fill="none" stroke="black" d="M254.59,-469.22C263.62,-442.97 278.75,-398.98 289.05,-369.06"/>
<polygon fill="black" stroke="black" points="292.39,-370.09 292.33,-359.49 285.77,-367.81 292.39,-370.09"/>
</g>
<!-- 9 -->
<g id="node10" class="node">
<title>9</title>
<ellipse fill="none" stroke="black" cx="300" cy="-180.12" rx="27" ry="24.08"/>
<text text-anchor="middle" x="300" y="-173.92" font-family="Times,serif" font-size="24.00">9</text>
</g>
<!-- 8&#45;&gt;9 -->
<g id="edge13" class="edge">
<title>8&#45;&gt;9</title>
<path fill="none" stroke="black" d="M300,-312.14C300,-286.27 300,-244.08 300,-214.59"/>
<polygon fill="black" stroke="black" points="303.5,-214.35 300,-204.35 296.5,-214.35 303.5,-214.35"/>
</g>
<!-- 10 -->
<g id="node11" class="node">
<title>10</title>
<ellipse fill="none" stroke="black" cx="300" cy="-24.04" rx="33.47" ry="24.08"/>
<text text-anchor="middle" x="300" y="-17.84" font-family="Times,serif" font-size="24.00">10</text>
</g>
<!-- 9&#45;&gt;10 -->
<g id="edge14" class="edge">
<title>9&#45;&gt;10</title>
<path fill="none" stroke="black" d="M300,-156.06C300,-130.19 300,-88 300,-58.5"/>
<polygon fill="black" stroke="black" points="303.5,-58.27 300,-48.27 296.5,-58.27 303.5,-58.27"/>
</g>
<!-- 11 -->
<g id="node12" class="node">
<title>11</title>
<ellipse fill="none" stroke="black" cx="489" cy="-648.37" rx="33.47" ry="24.08"/>
<text text-anchor="middle" x="489" y="-642.17" font-family="Times,serif" font-size="24.00">11</text>
</g>
<!-- 12 -->
<g id="node13" class="node">
<title>12</title>
<ellipse fill="none" stroke="black" cx="363" cy="-492.29" rx="33.47" ry="24.08"/>
<text text-anchor="middle" x="363" y="-486.09" font-family="Times,serif" font-size="24.00">12</text>
</g>
<!-- 11&#45;&gt;12 -->
<g id="edge15" class="edge">
<title>11&#45;&gt;12</title>
<path fill="none" stroke="black" d="M472.53,-627.23C450.36,-600.12 410.83,-551.78 385.81,-521.19"/>
<polygon fill="black" stroke="black" points="388.52,-518.97 379.48,-513.44 383.1,-523.4 388.52,-518.97"/>
</g>
<!-- 13 -->
<g id="node14" class="node">
<title>13</title>
<ellipse fill="none" stroke="black" cx="447" cy="-492.29" rx="33.47" ry="24.08"/>
<text text-anchor="middle" x="447" y="-486.09" font-family="Times,serif" font-size="24.00">13</text>
</g>
<!-- 11&#45;&gt;13 -->
<g id="edge16" class="edge">
<title>11&#45;&gt;13</title>
<path fill="none" stroke="black" d="M482.8,-624.64C475.7,-598.58 464,-555.65 455.92,-526"/>
<polygon fill="black" stroke="black" points="459.23,-524.85 453.22,-516.12 452.48,-526.69 459.23,-524.85"/>
</g>
<!-- 14 -->
<g id="node15" class="node">
<title>14</title>
<ellipse fill="none" stroke="black" cx="531" cy="-492.29" rx="33.47" ry="24.08"/>
<text text-anchor="middle" x="531" y="-486.09" font-family="Times,serif" font-size="24.00">14</text>
</g>
<!-- 11&#45;&gt;14 -->
<g id="edge17" class="edge">
<title>11&#45;&gt;14</title>
<path fill="none" stroke="black" d="M495.2,-624.64C502.3,-598.58 514,-555.65 522.08,-526"/>
<polygon fill="black" stroke="black" points="525.52,-526.69 524.78,-516.12 518.77,-524.85 525.52,-526.69"/>
</g>
<!-- 15 -->
<g id="node16" class="node">
<title>15</title>
<ellipse fill="none" stroke="black" cx="551" cy="-336.21" rx="33.47" ry="24.08"/>
<text text-anchor="middle" x="551" y="-330.01" font-family="Times,serif" font-size="24.00">15</text>
</g>
<!-- 11&#45;&gt;15 -->
<g id="edge18" class="edge">
<title>11&#45;&gt;15</title>
<path fill="none" stroke="black" d="M506.7,-627.87C527.28,-603.74 560.08,-560.42 573,-516.33 587.66,-466.31 573.97,-405.66 562.59,-369.32"/>
<polygon fill="black" stroke="black" points="565.9,-368.16 559.47,-359.74 559.24,-370.33 565.9,-368.16"/>
</g>
<!-- 14&#45;&gt;15 -->
<g id="edge19" class="edge">
<title>14&#45;&gt;15</title>
<path fill="none" stroke="black" d="M533.99,-468.22C537.36,-442.28 542.86,-399.92 546.69,-370.42"/>
<polygon fill="black" stroke="black" points="550.2,-370.55 548.02,-360.18 543.26,-369.65 550.2,-370.55"/>
</g>
<!-- 16 -->
<g id="node17" class="node">
<title>16</title>
<ellipse fill="none" stroke="black" cx="674" cy="-648.37" rx="33.47" ry="24.08"/>
<text text-anchor="middle" x="674" y="-642.17" font-family="Times,serif" font-size="24.00">16</text>
</g>
<!-- 17 -->
<g id="node18" class="node">
<title>17</title>
<ellipse fill="none" stroke="black" cx="674" cy="-492.29" rx="33.47" ry="24.08"/>
<text text-anchor="middle" x="674" y="-486.09" font-family="Times,serif" font-size="24.00">17</text>
</g>
<!-- 16&#45;&gt;17 -->
<g id="edge20" class="edge">
<title>16&#45;&gt;17</title>
<path fill="none" stroke="black" d="M674,-624.31C674,-598.44 674,-556.25 674,-526.75"/>
<polygon fill="black" stroke="black" points="677.5,-526.52 674,-516.52 670.5,-526.52 677.5,-526.52"/>
</g>
<!-- 18 -->
<g id="node19" class="node">
<title>18</title>
<ellipse fill="none" stroke="black" cx="654" cy="-336.21" rx="33.47" ry="24.08"/>
<text text-anchor="middle" x="654" y="-330.01" font-family="Times,serif" font-size="24.00">18</text>
</g>
<!-- 17&#45;&gt;18 -->
<g id="edge21" class="edge">
<title>17&#45;&gt;18</title>
<path fill="none" stroke="black" d="M671.01,-468.22C667.64,-442.28 662.14,-399.92 658.31,-370.42"/>
<polygon fill="black" stroke="black" points="661.74,-369.65 656.98,-360.18 654.8,-370.55 661.74,-369.65"/>
</g>
<!-- 19 -->
<g id="node20" class="node">
<title>19</title>
<ellipse fill="none" stroke="black" cx="684" cy="-180.12" rx="33.47" ry="24.08"/>
<text text-anchor="middle" x="684" y="-173.92" font-family="Times,serif" font-size="24.00">19</text>
</g>
<!-- 17&#45;&gt;19 -->
<g id="edge22" class="edge">
<title>17&#45;&gt;19</title>
<path fill="none" stroke="black" d="M679.07,-468.24C684.51,-442.18 692.82,-398.41 696,-360.25 700.25,-309.22 694.11,-249.92 689.16,-213.98"/>
<polygon fill="black" stroke="black" points="692.62,-213.45 687.74,-204.05 685.69,-214.44 692.62,-213.45"/>
</g>
<!-- 18&#45;&gt;19 -->
<g id="edge23" class="edge">
<title>18&#45;&gt;19</title>
<path fill="none" stroke="black" d="M658.49,-312.14C663.57,-286.08 671.86,-243.46 677.61,-213.95"/>
<polygon fill="black" stroke="black" points="681.05,-214.58 679.53,-204.1 674.18,-213.25 681.05,-214.58"/>
</g>
</g>
</svg>
