<?xml version="1.0" encoding="UTF-8" standalone="no"?>
<!DOCTYPE svg PUBLIC "-//W3C//DTD SVG 1.1//EN"
 "http://www.w3.org/Graphics/SVG/1.1/DTD/svg11.dtd">
<!-- Generated by graphviz version 2.43.0 (0)
 -->
<!-- Title: G Pages: 1 -->
<svg width="660pt" height="680pt"
 viewBox="0.00 0.00 660.23 680.42" xmlns="http://www.w3.org/2000/svg" xmlns:xlink="http://www.w3.org/1999/xlink">
<g id="graph0" class="graph" transform="scale(1 1) rotate(0) translate(4 676.42)">
<title>G</title>
<polygon fill="white" stroke="transparent" points="-4,4 -4,-676.42 656.23,-676.42 656.23,4 -4,4"/>
<!-- 0 -->
<g id="node1" class="node">
<title>0</title>
<ellipse fill="none" stroke="black" cx="55" cy="-648.37" rx="27" ry="24.08"/>
<text text-anchor="middle" x="55" y="-642.17" font-family="Times,serif" font-size="24.00">0</text>
</g>
<!-- 1 -->
<g id="node2" class="node">
<title>1</title>
<ellipse fill="none" stroke="black" cx="27" cy="-492.29" rx="27" ry="24.08"/>
<text text-anchor="middle" x="27" y="-486.09" font-family="Times,serif" font-size="24.00">1</text>
</g>
<!-- 0&#45;&gt;1 -->
<g id="edge1" class="edge">
<title>0&#45;&gt;1</title>
<path fill="none" stroke="black" d="M50.81,-624.31C46.07,-598.25 38.33,-555.63 32.96,-526.11"/>
<polygon fill="black" stroke="black" points="36.41,-525.48 31.17,-516.26 29.52,-526.73 36.41,-525.48"/>
</g>
<!-- 2 -->
<g id="node3" class="node">
<title>2</title>
<ellipse fill="none" stroke="black" cx="46" cy="-336.21" rx="27" ry="24.08"/>
<text text-anchor="middle" x="46" y="-330.01" font-family="Times,serif" font-size="24.00">2</text>
</g>
<!-- 0&#45;&gt;2 -->
<g id="edge2" class="edge">
<title>0&#45;&gt;2</title>
<path fill="none" stroke="black" d="M57.65,-624.17C61.19,-590.01 66.61,-524.17 63,-468.25 60.84,-434.85 55.62,-396.96 51.53,-370.54"/>
<polygon fill="black" stroke="black" points="54.93,-369.65 49.92,-360.32 48.02,-370.74 54.93,-369.65"/>
</g>
<!-- 1&#45;&gt;2 -->
<g id="edge3" class="edge">
<title>1&#45;&gt;2</title>
<path fill="none" stroke="black" d="M29.84,-468.22C33.04,-442.28 38.27,-399.92 41.91,-370.42"/>
<polygon fill="black" stroke="black" points="45.42,-370.53 43.17,-360.18 38.47,-369.68 45.42,-370.53"/>
</g>
<!-- 3 -->
<g id="node4" class="node">
<title>3</title>
<ellipse fill="none" stroke="black" cx="203" cy="-648.37" rx="27" ry="24.08"/>
<text text-anchor="middle" x="203" y="-642.17" font-family="Times,serif" font-size="24.00">3</text>
</g>
<!-- 4 -->
<g id="node5" class="node">
<title>4</title>
<ellipse fill="none" stroke="black" cx="175" cy="-492.29" rx="27" ry="24.08"/>
<text text-anchor="middle" x="175" y="-486.09" font-family="Times,serif" font-size="24.00">4</text>
</g>
<!-- 3&#45;&gt;4 -->
<g id="edge4" class="edge">
<title>3&#45;&gt;4</title>
<path fill="none" stroke="black" d="M198.81,-624.31C194.07,-598.25 186.33,-555.63 180.96,-526.11"/>
<polygon fill="black" stroke="black" points="184.41,-525.48 179.17,-516.26 177.52,-526.73 184.41,-525.48"/>
</g>
<!-- 5 -->
<g id="node6" class="node">
<title>5</title>
<ellipse fill="none" stroke="black" cx="137" cy="-336.21" rx="27" ry="24.08"/>
<text text-anchor="middle" x="137" y="-330.01" font-family="Times,serif" font-size="24.00">5</text>
</g>
<!-- 3&#45;&gt;5 -->
<g id="edge5" class="edge">
<title>3&#45;&gt;5</title>
<path fill="none" stroke="black" d="M189.55,-627.12C173.89,-602.26 148.93,-558.21 139,-516.33 127.18,-466.48 129.75,-406.61 133.08,-370.26"/>
<polygon fill="black" stroke="black" points="136.57,-370.52 134.07,-360.22 129.6,-369.83 136.57,-370.52"/>
</g>
<!-- 6 -->
<g id="node7" class="node">
<title>6</title>
<ellipse fill="none" stroke="black" cx="202" cy="-180.12" rx="27" ry="24.08"/>
<text text-anchor="middle" x="202" y="-173.92" font-family="Times,serif" font-size="24.00">6</text>
</g>
<!-- 3&#45;&gt;6 -->
<g id="edge6" class="edge">
<title>3&#45;&gt;6</title>
<path fill="none" stroke="black" d="M204.84,-624.2C206.83,-598.02 209.85,-554.15 211,-516.33 214.37,-405.72 207.77,-274.56 204.15,-214.35"/>
<polygon fill="black" stroke="black" points="207.64,-214.06 203.54,-204.29 200.66,-214.49 207.64,-214.06"/>
</g>
<!-- 7 -->
<g id="node8" class="node">
<title>7</title>
<ellipse fill="none" stroke="black" cx="245" cy="-24.04" rx="27" ry="24.08"/>
<text text-anchor="middle" x="245" y="-17.84" font-family="Times,serif" font-size="24.00">7</text>
</g>
<!-- 3&#45;&gt;7 -->
<g id="edge7" class="edge">
<title>3&#45;&gt;7</title>
<path fill="none" stroke="black" d="M208.02,-624.31C213.47,-598.24 221.94,-554.46 226,-516.33 244.28,-344.88 245.54,-138.12 245.26,-58.51"/>
<polygon fill="black" stroke="black" points="248.76,-58.13 245.21,-48.14 241.76,-58.16 248.76,-58.13"/>
</g>
<!-- 4&#45;&gt;5 -->
<g id="edge8" class="edge">
<title>4&#45;&gt;5</title>
<path fill="none" stroke="black" d="M169.39,-468.56C162.95,-442.42 152.32,-399.32 145,-369.67"/>
<polygon fill="black" stroke="black" points="148.36,-368.66 142.57,-359.79 141.56,-370.33 148.36,-368.66"/>
</g>
<!-- 4&#45;&gt;6 -->
<g id="edge9" class="edge">
<title>4&#45;&gt;6</title>
<path fill="none" stroke="black" d="M177.01,-468.23C181.73,-413.95 193.57,-277.93 199.09,-214.57"/>
<polygon fill="black" stroke="black" points="202.6,-214.6 199.98,-204.34 195.63,-213.99 202.6,-214.6"/>
</g>
<!-- 5&#45;&gt;6 -->
<g id="edge10" class="edge">
<title>5&#45;&gt;6</title>
<path fill="none" stroke="black" d="M146.18,-313.46C157.31,-287.07 176.15,-242.41 188.83,-212.35"/>
<polygon fill="black" stroke="black" points="192.21,-213.34 192.87,-202.76 185.76,-210.62 192.21,-213.34"/>
</g>
<!-- 6&#45;&gt;7 -->
<g id="edge11" class="edge">
<title>6&#45;&gt;7</title>
<path fill="none" stroke="black" d="M208.25,-156.72C215.55,-130.59 227.66,-87.18 235.97,-57.39"/>
<polygon fill="black" stroke="black" points="239.42,-58.05 238.74,-47.47 232.68,-56.16 239.42,-58.05"/>
</g>
<!-- 8 -->
<g id="node9" class="node">
<title>8</title>
<ellipse fill="none" stroke="black" cx="366" cy="-648.37" rx="27" ry="24.08"/>
<text text-anchor="middle" x="366" y="-642.17" font-family="Times,serif" font-size="24.00">8</text>
</g>
<!-- 9 -->
<g id="node10" class="node">
<title>9</title>
<ellipse fill="none" stroke="black" cx="338" cy="-492.29" rx="27" ry="24.08"/>
<text text-anchor="middle" x="338" y="-486.09" font-family="Times,serif" font-size="24.00">9</text>
</g>
<!-- 8&#45;&gt;9 -->
<g id="edge12" class="edge">
<title>8&#45;&gt;9</title>
<path fill="none" stroke="black" d="M361.81,-624.31C357.07,-598.25 349.33,-555.63 343.96,-526.11"/>
<polygon fill="black" stroke="black" points="347.41,-525.48 342.17,-516.26 340.52,-526.73 347.41,-525.48"/>
</g>
<!-- 10 -->
<g id="node11" class="node">
<title>10</title>
<ellipse fill="none" stroke="black" cx="353" cy="-336.21" rx="33.47" ry="24.08"/>
<text text-anchor="middle" x="353" y="-330.01" font-family="Times,serif" font-size="24.00">10</text>
</g>
<!-- 8&#45;&gt;10 -->
<g id="edge13" class="edge">
<title>8&#45;&gt;10</title>
<path fill="none" stroke="black" d="M368.84,-624.44C372.65,-590.34 378.46,-524.26 374,-468.25 371.32,-434.59 364.83,-396.53 359.76,-370.13"/>
<polygon fill="black" stroke="black" points="363.19,-369.41 357.84,-360.27 356.32,-370.76 363.19,-369.41"/>
</g>
<!-- 9&#45;&gt;10 -->
<g id="edge14" class="edge">
<title>9&#45;&gt;10</title>
<path fill="none" stroke="black" d="M340.25,-468.22C342.76,-442.35 346.87,-400.16 349.74,-370.67"/>
<polygon fill="black" stroke="black" points="353.25,-370.73 350.74,-360.43 346.29,-370.05 353.25,-370.73"/>
</g>
<!-- 11 -->
<g id="node12" class="node">
<title>11</title>
<ellipse fill="none" stroke="black" cx="329" cy="-180.12" rx="33.47" ry="24.08"/>
<text text-anchor="middle" x="329" y="-173.92" font-family="Times,serif" font-size="24.00">11</text>
</g>
<!-- 10&#45;&gt;11 -->
<g id="edge15" class="edge">
<title>10&#45;&gt;11</title>
<path fill="none" stroke="black" d="M349.41,-312.14C345.37,-286.19 338.77,-243.84 334.17,-214.33"/>
<polygon fill="black" stroke="black" points="337.58,-213.44 332.58,-204.1 330.66,-214.52 337.58,-213.44"/>
</g>
<!-- 12 -->
<g id="node13" class="node">
<title>12</title>
<ellipse fill="none" stroke="black" cx="352" cy="-24.04" rx="33.47" ry="24.08"/>
<text text-anchor="middle" x="352" y="-17.84" font-family="Times,serif" font-size="24.00">12</text>
</g>
<!-- 10&#45;&gt;12 -->
<g id="edge16" class="edge">
<title>10&#45;&gt;12</title>
<path fill="none" stroke="black" d="M357.83,-312.34C364.45,-278.32 375.06,-212.35 371,-156.08 368.58,-122.48 362.7,-84.41 358.12,-57.99"/>
<polygon fill="black" stroke="black" points="361.56,-57.37 356.38,-48.13 354.67,-58.59 361.56,-57.37"/>
</g>
<!-- 11&#45;&gt;12 -->
<g id="edge17" class="edge">
<title>11&#45;&gt;12</title>
<path fill="none" stroke="black" d="M332.44,-156.06C336.32,-130.11 342.64,-87.75 347.04,-58.25"/>
<polygon fill="black" stroke="black" points="350.56,-58.42 348.57,-48.02 343.63,-57.39 350.56,-58.42"/>
</g>
<!-- 13 -->
<g id="node14" class="node">
<title>13</title>
<ellipse fill="none" stroke="black" cx="535" cy="-648.37" rx="33.47" ry="24.08"/>
<text text-anchor="middle" x="535" y="-642.17" font-family="Times,serif" font-size="24.00">13</text>
</g>
<!-- 14 -->
<g id="node15" class="node">
<title>14</title>
<ellipse fill="none" stroke="black" cx="535" cy="-492.29" rx="33.47" ry="24.08"/>
<text text-anchor="middle" x="535" y="-486.09" font-family="Times,serif" font-size="24.00">14</text>
</g>
<!-- 13&#45;&gt;14 -->
<g id="edge18" class="edge">
<title>13&#45;&gt;14</title>
<path fill="none" stroke="black" d="M535,-624.31C535,-598.44 535,-556.25 535,-526.75"/>
<polygon fill="black" stroke="black" points="538.5,-526.52 535,-516.52 531.5,-526.52 538.5,-526.52"/>
</g>
<!-- 15 -->
<g id="node16" class="node">
<title>15</title>
<ellipse fill="none" stroke="black" cx="535" cy="-336.21" rx="33.47" ry="24.08"/>
<text text-anchor="middle" x="535" y="-330.01" font-family="Times,serif" font-size="24.00">15</text>
</g>
<!-- 14&#45;&gt;15 -->
<g id="edge19" class="edge">
<title>14&#45;&gt;15</title>
<path fill="none" stroke="black" d="M535,-468.22C535,-442.35 535,-400.16 535,-370.67"/>
<polygon fill="black" stroke="black" points="538.5,-370.43 535,-360.43 531.5,-370.43 538.5,-370.43"/>
</g>
<!-- 16 -->
<g id="node17" class="node">
<title>16</title>
<ellipse fill="none" stroke="black" cx="451" cy="-180.12" rx="33.47" ry="24.08"/>
<text text-anchor="middle" x="451" y="-173.92" font-family="Times,serif" font-size="24.00">16</text>
</g>
<!-- 14&#45;&gt;16 -->
<g id="edge20" class="edge">
<title>14&#45;&gt;16</title>
<path fill="none" stroke="black" d="M527.16,-468.73C518.28,-442.75 503.65,-398.7 493,-360.25 478.99,-309.68 465.67,-250.25 457.92,-214.15"/>
<polygon fill="black" stroke="black" points="461.3,-213.23 455.79,-204.18 454.45,-214.69 461.3,-213.23"/>
</g>
<!-- 17 -->
<g id="node18" class="node">
<title>17</title>
<ellipse fill="none" stroke="black" cx="619" cy="-180.12" rx="33.47" ry="24.08"/>
<text text-anchor="middle" x="619" y="-173.92" font-family="Times,serif" font-size="24.00">17</text>
</g>
<!-- 14&#45;&gt;17 -->
<g id="edge21" class="edge">
<title>14&#45;&gt;17</title>
<path fill="none" stroke="black" d="M542.84,-468.73C551.72,-442.75 566.35,-398.7 577,-360.25 591.01,-309.68 604.33,-250.25 612.08,-214.15"/>
<polygon fill="black" stroke="black" points="615.55,-214.69 614.21,-204.18 608.7,-213.23 615.55,-214.69"/>
</g>
<!-- 15&#45;&gt;16 -->
<g id="edge22" class="edge">
<title>15&#45;&gt;16</title>
<path fill="none" stroke="black" d="M523.14,-313.46C508.63,-286.85 483.98,-241.63 467.6,-211.57"/>
<polygon fill="black" stroke="black" points="470.66,-209.87 462.8,-202.76 464.51,-213.22 470.66,-209.87"/>
</g>
<!-- 15&#45;&gt;17 -->
<g id="edge23" class="edge">
<title>15&#45;&gt;17</title>
<path fill="none" stroke="black" d="M546.86,-313.46C561.37,-286.85 586.02,-241.63 602.4,-211.57"/>
<polygon fill="black" stroke="black" points="605.49,-213.22 607.2,-202.76 599.34,-209.87 605.49,-213.22"/>
</g>
<!-- 18 -->
<g id="node19" class="node">
<title>18</title>
<ellipse fill="none" stroke="black" cx="535" cy="-180.12" rx="33.47" ry="24.08"/>
<text text-anchor="middle" x="535" y="-173.92" font-family="Times,serif" font-size="24.00">18</text>
</g>
<!-- 15&#45;&gt;18 -->
<g id="edge24" class="edge">
<title>15&#45;&gt;18</title>
<path fill="none" stroke="black" d="M535,-312.14C535,-286.27 535,-244.08 535,-214.59"/>
<polygon fill="black" stroke="black" points="538.5,-214.35 535,-204.35 531.5,-214.35 538.5,-214.35"/>
</g>
<!-- 19 -->
<g id="node20" class="node">
<title>19</title>
<ellipse fill="none" stroke="black" cx="619" cy="-648.37" rx="33.47" ry="24.08"/>
<text text-anchor="middle" x="619" y="-642.17" font-family="Times,serif" font-size="24.00">19</text>
</g>
</g>
</svg>
